# xmcd
#
# Track frame offsets: 
#        150
#        14415
#        33505
#        42060
#        56440
#        83484
#        96551
#        117973
#        140734
#        187710
#        228434
#        253610
#
# Disc length: 3739 seconds
#
# Revision: 2
# Processed by: cddbd v1.5.2PL0 Copyright (c) Steve Scherf et al.
# Submitted via: ExactAudioCopyFreeDBPlugin 1.0
#
DISCID=960e990c
DTITLE=David Bromberg - Archive Recordings Volume 1
DYEAR=1979
DGENRE=Blues
TTITLE0=Cannonball
TTITLE1=If I Get Lucky
TTITLE2=Salt Creek
TTITLE3=Danger Man
TTITLE4=Pine Tree Women
TTITLE5=Wheelhoss
TTITLE6=Every Day of the week
TTITLE7=Fiddle Tune Medley
TTITLE8=Jelly Jaw Joe
TTITLE9=Some Else's Blues
TTITLE10=Send Me to the Lectric Chair
TTITLE11=Statesboro Blues - Church Bell Blues
EXTD=
EXTT0=
EXTT1=
EXTT2=
EXTT3=
EXTT4=
EXTT5=
EXTT6=
EXTT7=
EXTT8=
EXTT9=
EXTT10=
EXTT11=
PLAYORDER=
